<mxfile host="Electron" modified="2024-05-09T18:04:27.720Z" agent="Mozilla/5.0 (Windows NT 10.0; Win64; x64) AppleWebKit/537.36 (KHTML, like Gecko) draw.io/24.2.5 Chrome/120.0.6099.109 Electron/28.1.0 Safari/537.36" etag="yrCAeIf6F0WrwOiMIPmz" version="24.2.5" type="device">
  <diagram name="1 oldal" id="WcJiNa1dB5Y9lUAIbmHb">
    <mxGraphModel dx="1802" dy="909" grid="1" gridSize="10" guides="1" tooltips="1" connect="1" arrows="1" fold="1" page="1" pageScale="1" pageWidth="827" pageHeight="1169" math="0" shadow="0">
      <root>
        <mxCell id="0" />
        <mxCell id="1" parent="0" />
        <mxCell id="Uhl-44Zc7lVo9UiM3blj-1" value="MapView" style="swimlane;fontStyle=1;align=center;verticalAlign=top;childLayout=stackLayout;horizontal=1;startSize=26;horizontalStack=0;resizeParent=1;resizeParentMax=0;resizeLast=0;collapsible=1;marginBottom=0;whiteSpace=wrap;html=1;" parent="1" vertex="1">
          <mxGeometry x="510" y="170" width="260" height="72" as="geometry" />
        </mxCell>
        <mxCell id="Uhl-44Zc7lVo9UiM3blj-4" value="+ draw(): void&lt;div&gt;+ initPanel(): void&lt;/div&gt;" style="text;strokeColor=none;fillColor=none;align=left;verticalAlign=top;spacingLeft=4;spacingRight=4;overflow=hidden;rotatable=0;points=[[0,0.5],[1,0.5]];portConstraint=eastwest;whiteSpace=wrap;html=1;" parent="Uhl-44Zc7lVo9UiM3blj-1" vertex="1">
          <mxGeometry y="26" width="260" height="46" as="geometry" />
        </mxCell>
        <mxCell id="Uhl-44Zc7lVo9UiM3blj-5" value="GameFrame" style="swimlane;fontStyle=1;align=center;verticalAlign=top;childLayout=stackLayout;horizontal=1;startSize=26;horizontalStack=0;resizeParent=1;resizeParentMax=0;resizeLast=0;collapsible=1;marginBottom=0;whiteSpace=wrap;html=1;" parent="1" vertex="1">
          <mxGeometry x="60" y="70" width="280" height="260" as="geometry" />
        </mxCell>
        <mxCell id="Uhl-44Zc7lVo9UiM3blj-6" value="- actualPlayer: JLabel&lt;div&gt;- remainingActions: JLabel&lt;/div&gt;&lt;div&gt;- currentRound: JLabel&lt;/div&gt;&lt;div&gt;- moveButton: JButton&lt;/div&gt;&lt;div&gt;- transJumpButton: JButton&lt;/div&gt;&lt;div&gt;- dropItemButton: JButton&lt;/div&gt;&lt;div&gt;- useItemButton: JButton&lt;/div&gt;&lt;div&gt;- turnOnTransButton: JButton&lt;/div&gt;&lt;div&gt;- idleButton: JButton&lt;/div&gt;&lt;div&gt;- mapView: MapView&lt;/div&gt;" style="text;strokeColor=none;fillColor=none;align=left;verticalAlign=top;spacingLeft=4;spacingRight=4;overflow=hidden;rotatable=0;points=[[0,0.5],[1,0.5]];portConstraint=eastwest;whiteSpace=wrap;html=1;" parent="Uhl-44Zc7lVo9UiM3blj-5" vertex="1">
          <mxGeometry y="26" width="280" height="154" as="geometry" />
        </mxCell>
        <mxCell id="Uhl-44Zc7lVo9UiM3blj-7" value="" style="line;strokeWidth=1;fillColor=none;align=left;verticalAlign=middle;spacingTop=-1;spacingLeft=3;spacingRight=3;rotatable=0;labelPosition=right;points=[];portConstraint=eastwest;strokeColor=inherit;" parent="Uhl-44Zc7lVo9UiM3blj-5" vertex="1">
          <mxGeometry y="180" width="280" height="8" as="geometry" />
        </mxCell>
        <mxCell id="Uhl-44Zc7lVo9UiM3blj-8" value="+ initButtons(): void&lt;div&gt;+ updateHud(): void&lt;/div&gt;&lt;div&gt;+ drawMap(): void&lt;/div&gt;&lt;div&gt;+ initFrame(): void&lt;/div&gt;" style="text;strokeColor=none;fillColor=none;align=left;verticalAlign=top;spacingLeft=4;spacingRight=4;overflow=hidden;rotatable=0;points=[[0,0.5],[1,0.5]];portConstraint=eastwest;whiteSpace=wrap;html=1;" parent="Uhl-44Zc7lVo9UiM3blj-5" vertex="1">
          <mxGeometry y="188" width="280" height="72" as="geometry" />
        </mxCell>
        <mxCell id="Uhl-44Zc7lVo9UiM3blj-9" value="ElementView" style="swimlane;fontStyle=1;align=center;verticalAlign=top;childLayout=stackLayout;horizontal=1;startSize=26;horizontalStack=0;resizeParent=1;resizeParentMax=0;resizeLast=0;collapsible=1;marginBottom=0;whiteSpace=wrap;html=1;" parent="1" vertex="1">
          <mxGeometry x="440" y="330" width="310" height="130" as="geometry" />
        </mxCell>
        <mxCell id="Uhl-44Zc7lVo9UiM3blj-10" value="- xCoord: int&lt;div&gt;- yCoord: int&lt;/div&gt;&lt;div&gt;- image: JLabel&lt;/div&gt;" style="text;strokeColor=none;fillColor=none;align=left;verticalAlign=top;spacingLeft=4;spacingRight=4;overflow=hidden;rotatable=0;points=[[0,0.5],[1,0.5]];portConstraint=eastwest;whiteSpace=wrap;html=1;" parent="Uhl-44Zc7lVo9UiM3blj-9" vertex="1">
          <mxGeometry y="26" width="310" height="54" as="geometry" />
        </mxCell>
        <mxCell id="Uhl-44Zc7lVo9UiM3blj-11" value="" style="line;strokeWidth=1;fillColor=none;align=left;verticalAlign=middle;spacingTop=-1;spacingLeft=3;spacingRight=3;rotatable=0;labelPosition=right;points=[];portConstraint=eastwest;strokeColor=inherit;" parent="Uhl-44Zc7lVo9UiM3blj-9" vertex="1">
          <mxGeometry y="80" width="310" height="8" as="geometry" />
        </mxCell>
        <mxCell id="Uhl-44Zc7lVo9UiM3blj-12" value="+ DrawImage(): void&lt;div&gt;+ initView(): void&lt;/div&gt;" style="text;strokeColor=none;fillColor=none;align=left;verticalAlign=top;spacingLeft=4;spacingRight=4;overflow=hidden;rotatable=0;points=[[0,0.5],[1,0.5]];portConstraint=eastwest;whiteSpace=wrap;html=1;" parent="Uhl-44Zc7lVo9UiM3blj-9" vertex="1">
          <mxGeometry y="88" width="310" height="42" as="geometry" />
        </mxCell>
        <mxCell id="Uhl-44Zc7lVo9UiM3blj-13" value="GlassOfBeerView" style="swimlane;fontStyle=1;align=center;verticalAlign=top;childLayout=stackLayout;horizontal=1;startSize=26;horizontalStack=0;resizeParent=1;resizeParentMax=0;resizeLast=0;collapsible=1;marginBottom=0;whiteSpace=wrap;html=1;" parent="1" vertex="1">
          <mxGeometry x="1130" y="420" width="320" height="94" as="geometry" />
        </mxCell>
        <mxCell id="Uhl-44Zc7lVo9UiM3blj-14" value="- activatedLabel: JLabel&lt;div&gt;- activeRoundsLabel: JLabel&lt;/div&gt;" style="text;strokeColor=none;fillColor=none;align=left;verticalAlign=top;spacingLeft=4;spacingRight=4;overflow=hidden;rotatable=0;points=[[0,0.5],[1,0.5]];portConstraint=eastwest;whiteSpace=wrap;html=1;" parent="Uhl-44Zc7lVo9UiM3blj-13" vertex="1">
          <mxGeometry y="26" width="320" height="34" as="geometry" />
        </mxCell>
        <mxCell id="Uhl-44Zc7lVo9UiM3blj-15" value="" style="line;strokeWidth=1;fillColor=none;align=left;verticalAlign=middle;spacingTop=-1;spacingLeft=3;spacingRight=3;rotatable=0;labelPosition=right;points=[];portConstraint=eastwest;strokeColor=inherit;" parent="Uhl-44Zc7lVo9UiM3blj-13" vertex="1">
          <mxGeometry y="60" width="320" height="8" as="geometry" />
        </mxCell>
        <mxCell id="Uhl-44Zc7lVo9UiM3blj-16" value="+ DrawImage(): void" style="text;strokeColor=none;fillColor=none;align=left;verticalAlign=top;spacingLeft=4;spacingRight=4;overflow=hidden;rotatable=0;points=[[0,0.5],[1,0.5]];portConstraint=eastwest;whiteSpace=wrap;html=1;" parent="Uhl-44Zc7lVo9UiM3blj-13" vertex="1">
          <mxGeometry y="68" width="320" height="26" as="geometry" />
        </mxCell>
        <mxCell id="Uhl-44Zc7lVo9UiM3blj-17" value="CharacterView" style="swimlane;fontStyle=1;align=center;verticalAlign=top;childLayout=stackLayout;horizontal=1;startSize=26;horizontalStack=0;resizeParent=1;resizeParentMax=0;resizeLast=0;collapsible=1;marginBottom=0;whiteSpace=wrap;html=1;" parent="1" vertex="1">
          <mxGeometry x="365" y="530" width="250" height="104" as="geometry" />
        </mxCell>
        <mxCell id="Uhl-44Zc7lVo9UiM3blj-18" value="- stunnedLabel: JLabel&lt;div&gt;- character: Character&lt;/div&gt;" style="text;strokeColor=none;fillColor=none;align=left;verticalAlign=top;spacingLeft=4;spacingRight=4;overflow=hidden;rotatable=0;points=[[0,0.5],[1,0.5]];portConstraint=eastwest;whiteSpace=wrap;html=1;" parent="Uhl-44Zc7lVo9UiM3blj-17" vertex="1">
          <mxGeometry y="26" width="250" height="44" as="geometry" />
        </mxCell>
        <mxCell id="Uhl-44Zc7lVo9UiM3blj-19" value="" style="line;strokeWidth=1;fillColor=none;align=left;verticalAlign=middle;spacingTop=-1;spacingLeft=3;spacingRight=3;rotatable=0;labelPosition=right;points=[];portConstraint=eastwest;strokeColor=inherit;" parent="Uhl-44Zc7lVo9UiM3blj-17" vertex="1">
          <mxGeometry y="70" width="250" height="8" as="geometry" />
        </mxCell>
        <mxCell id="Uhl-44Zc7lVo9UiM3blj-20" value="+ DrawImage(): void" style="text;strokeColor=none;fillColor=none;align=left;verticalAlign=top;spacingLeft=4;spacingRight=4;overflow=hidden;rotatable=0;points=[[0,0.5],[1,0.5]];portConstraint=eastwest;whiteSpace=wrap;html=1;" parent="Uhl-44Zc7lVo9UiM3blj-17" vertex="1">
          <mxGeometry y="78" width="250" height="26" as="geometry" />
        </mxCell>
        <mxCell id="Uhl-44Zc7lVo9UiM3blj-21" value="StudentView" style="swimlane;fontStyle=1;align=center;verticalAlign=top;childLayout=stackLayout;horizontal=1;startSize=26;horizontalStack=0;resizeParent=1;resizeParentMax=0;resizeLast=0;collapsible=1;marginBottom=0;whiteSpace=wrap;html=1;" parent="1" vertex="1">
          <mxGeometry x="365" y="680" width="240" height="104" as="geometry" />
        </mxCell>
        <mxCell id="Uhl-44Zc7lVo9UiM3blj-22" value="- maskedLabel: JLabel&lt;div&gt;- TVSZLabel: JLabel&lt;/div&gt;" style="text;strokeColor=none;fillColor=none;align=left;verticalAlign=top;spacingLeft=4;spacingRight=4;overflow=hidden;rotatable=0;points=[[0,0.5],[1,0.5]];portConstraint=eastwest;whiteSpace=wrap;html=1;" parent="Uhl-44Zc7lVo9UiM3blj-21" vertex="1">
          <mxGeometry y="26" width="240" height="44" as="geometry" />
        </mxCell>
        <mxCell id="Uhl-44Zc7lVo9UiM3blj-23" value="" style="line;strokeWidth=1;fillColor=none;align=left;verticalAlign=middle;spacingTop=-1;spacingLeft=3;spacingRight=3;rotatable=0;labelPosition=right;points=[];portConstraint=eastwest;strokeColor=inherit;" parent="Uhl-44Zc7lVo9UiM3blj-21" vertex="1">
          <mxGeometry y="70" width="240" height="8" as="geometry" />
        </mxCell>
        <mxCell id="Uhl-44Zc7lVo9UiM3blj-24" value="+ DrawImage(): void" style="text;strokeColor=none;fillColor=none;align=left;verticalAlign=top;spacingLeft=4;spacingRight=4;overflow=hidden;rotatable=0;points=[[0,0.5],[1,0.5]];portConstraint=eastwest;whiteSpace=wrap;html=1;" parent="Uhl-44Zc7lVo9UiM3blj-21" vertex="1">
          <mxGeometry y="78" width="240" height="26" as="geometry" />
        </mxCell>
        <mxCell id="Uhl-44Zc7lVo9UiM3blj-25" value="RoomView" style="swimlane;fontStyle=1;align=center;verticalAlign=top;childLayout=stackLayout;horizontal=1;startSize=26;horizontalStack=0;resizeParent=1;resizeParentMax=0;resizeLast=0;collapsible=1;marginBottom=0;whiteSpace=wrap;html=1;" parent="1" vertex="1">
          <mxGeometry x="710" y="514" width="280" height="134" as="geometry" />
        </mxCell>
        <mxCell id="Uhl-44Zc7lVo9UiM3blj-26" value="- transistorLabel: JLabel&lt;div&gt;- moveCountLabel: JLabel&lt;/div&gt;&lt;div&gt;- maxCharLabel: JLabel&lt;/div&gt;&lt;div&gt;- maxItemLabel: JLabel&lt;/div&gt;&lt;div&gt;- room: Room&lt;/div&gt;" style="text;strokeColor=none;fillColor=none;align=left;verticalAlign=top;spacingLeft=4;spacingRight=4;overflow=hidden;rotatable=0;points=[[0,0.5],[1,0.5]];portConstraint=eastwest;whiteSpace=wrap;html=1;" parent="Uhl-44Zc7lVo9UiM3blj-25" vertex="1">
          <mxGeometry y="26" width="280" height="74" as="geometry" />
        </mxCell>
        <mxCell id="Uhl-44Zc7lVo9UiM3blj-27" value="" style="line;strokeWidth=1;fillColor=none;align=left;verticalAlign=middle;spacingTop=-1;spacingLeft=3;spacingRight=3;rotatable=0;labelPosition=right;points=[];portConstraint=eastwest;strokeColor=inherit;" parent="Uhl-44Zc7lVo9UiM3blj-25" vertex="1">
          <mxGeometry y="100" width="280" height="8" as="geometry" />
        </mxCell>
        <mxCell id="Uhl-44Zc7lVo9UiM3blj-28" value="+ DrawImage(): void" style="text;strokeColor=none;fillColor=none;align=left;verticalAlign=top;spacingLeft=4;spacingRight=4;overflow=hidden;rotatable=0;points=[[0,0.5],[1,0.5]];portConstraint=eastwest;whiteSpace=wrap;html=1;" parent="Uhl-44Zc7lVo9UiM3blj-25" vertex="1">
          <mxGeometry y="108" width="280" height="26" as="geometry" />
        </mxCell>
        <mxCell id="Uhl-44Zc7lVo9UiM3blj-29" value="FFP2View" style="swimlane;fontStyle=1;align=center;verticalAlign=top;childLayout=stackLayout;horizontal=1;startSize=26;horizontalStack=0;resizeParent=1;resizeParentMax=0;resizeLast=0;collapsible=1;marginBottom=0;whiteSpace=wrap;html=1;" parent="1" vertex="1">
          <mxGeometry x="1330" y="270" width="210" height="86" as="geometry" />
        </mxCell>
        <mxCell id="Uhl-44Zc7lVo9UiM3blj-30" value="- durabilityLabel: JLabel&lt;div&gt;&lt;br&gt;&lt;/div&gt;" style="text;strokeColor=none;fillColor=none;align=left;verticalAlign=top;spacingLeft=4;spacingRight=4;overflow=hidden;rotatable=0;points=[[0,0.5],[1,0.5]];portConstraint=eastwest;whiteSpace=wrap;html=1;" parent="Uhl-44Zc7lVo9UiM3blj-29" vertex="1">
          <mxGeometry y="26" width="210" height="26" as="geometry" />
        </mxCell>
        <mxCell id="Uhl-44Zc7lVo9UiM3blj-31" value="" style="line;strokeWidth=1;fillColor=none;align=left;verticalAlign=middle;spacingTop=-1;spacingLeft=3;spacingRight=3;rotatable=0;labelPosition=right;points=[];portConstraint=eastwest;strokeColor=inherit;" parent="Uhl-44Zc7lVo9UiM3blj-29" vertex="1">
          <mxGeometry y="52" width="210" height="8" as="geometry" />
        </mxCell>
        <mxCell id="Uhl-44Zc7lVo9UiM3blj-32" value="+ DrawImage(): void" style="text;strokeColor=none;fillColor=none;align=left;verticalAlign=top;spacingLeft=4;spacingRight=4;overflow=hidden;rotatable=0;points=[[0,0.5],[1,0.5]];portConstraint=eastwest;whiteSpace=wrap;html=1;" parent="Uhl-44Zc7lVo9UiM3blj-29" vertex="1">
          <mxGeometry y="60" width="210" height="26" as="geometry" />
        </mxCell>
        <mxCell id="Uhl-44Zc7lVo9UiM3blj-33" value="TVSZView" style="swimlane;fontStyle=1;align=center;verticalAlign=top;childLayout=stackLayout;horizontal=1;startSize=26;horizontalStack=0;resizeParent=1;resizeParentMax=0;resizeLast=0;collapsible=1;marginBottom=0;whiteSpace=wrap;html=1;" parent="1" vertex="1">
          <mxGeometry x="900" y="30" width="200" height="86" as="geometry" />
        </mxCell>
        <mxCell id="Uhl-44Zc7lVo9UiM3blj-34" value="- remainingProtLabel: JLabel" style="text;strokeColor=none;fillColor=none;align=left;verticalAlign=top;spacingLeft=4;spacingRight=4;overflow=hidden;rotatable=0;points=[[0,0.5],[1,0.5]];portConstraint=eastwest;whiteSpace=wrap;html=1;" parent="Uhl-44Zc7lVo9UiM3blj-33" vertex="1">
          <mxGeometry y="26" width="200" height="26" as="geometry" />
        </mxCell>
        <mxCell id="Uhl-44Zc7lVo9UiM3blj-35" value="" style="line;strokeWidth=1;fillColor=none;align=left;verticalAlign=middle;spacingTop=-1;spacingLeft=3;spacingRight=3;rotatable=0;labelPosition=right;points=[];portConstraint=eastwest;strokeColor=inherit;" parent="Uhl-44Zc7lVo9UiM3blj-33" vertex="1">
          <mxGeometry y="52" width="200" height="8" as="geometry" />
        </mxCell>
        <mxCell id="Uhl-44Zc7lVo9UiM3blj-36" value="+ DrawImage(): void" style="text;strokeColor=none;fillColor=none;align=left;verticalAlign=top;spacingLeft=4;spacingRight=4;overflow=hidden;rotatable=0;points=[[0,0.5],[1,0.5]];portConstraint=eastwest;whiteSpace=wrap;html=1;" parent="Uhl-44Zc7lVo9UiM3blj-33" vertex="1">
          <mxGeometry y="60" width="200" height="26" as="geometry" />
        </mxCell>
        <mxCell id="Uhl-44Zc7lVo9UiM3blj-37" value="TransistorView" style="swimlane;fontStyle=1;align=center;verticalAlign=top;childLayout=stackLayout;horizontal=1;startSize=26;horizontalStack=0;resizeParent=1;resizeParentMax=0;resizeLast=0;collapsible=1;marginBottom=0;whiteSpace=wrap;html=1;" parent="1" vertex="1">
          <mxGeometry x="1220" y="40" width="160" height="104" as="geometry" />
        </mxCell>
        <mxCell id="Uhl-44Zc7lVo9UiM3blj-38" value="- isOnLabel: JLabel&lt;div&gt;- isParedLabel: JLabel&lt;/div&gt;" style="text;strokeColor=none;fillColor=none;align=left;verticalAlign=top;spacingLeft=4;spacingRight=4;overflow=hidden;rotatable=0;points=[[0,0.5],[1,0.5]];portConstraint=eastwest;whiteSpace=wrap;html=1;" parent="Uhl-44Zc7lVo9UiM3blj-37" vertex="1">
          <mxGeometry y="26" width="160" height="44" as="geometry" />
        </mxCell>
        <mxCell id="Uhl-44Zc7lVo9UiM3blj-39" value="" style="line;strokeWidth=1;fillColor=none;align=left;verticalAlign=middle;spacingTop=-1;spacingLeft=3;spacingRight=3;rotatable=0;labelPosition=right;points=[];portConstraint=eastwest;strokeColor=inherit;" parent="Uhl-44Zc7lVo9UiM3blj-37" vertex="1">
          <mxGeometry y="70" width="160" height="8" as="geometry" />
        </mxCell>
        <mxCell id="Uhl-44Zc7lVo9UiM3blj-40" value="+ DrawImage(): void" style="text;strokeColor=none;fillColor=none;align=left;verticalAlign=top;spacingLeft=4;spacingRight=4;overflow=hidden;rotatable=0;points=[[0,0.5],[1,0.5]];portConstraint=eastwest;whiteSpace=wrap;html=1;" parent="Uhl-44Zc7lVo9UiM3blj-37" vertex="1">
          <mxGeometry y="78" width="160" height="26" as="geometry" />
        </mxCell>
        <mxCell id="Uhl-44Zc7lVo9UiM3blj-41" value="WetRagView" style="swimlane;fontStyle=1;align=center;verticalAlign=top;childLayout=stackLayout;horizontal=1;startSize=26;horizontalStack=0;resizeParent=1;resizeParentMax=0;resizeLast=0;collapsible=1;marginBottom=0;whiteSpace=wrap;html=1;" parent="1" vertex="1">
          <mxGeometry x="1310" y="157" width="200" height="86" as="geometry" />
        </mxCell>
        <mxCell id="Uhl-44Zc7lVo9UiM3blj-42" value="- wetnessLabel: JLabel" style="text;strokeColor=none;fillColor=none;align=left;verticalAlign=top;spacingLeft=4;spacingRight=4;overflow=hidden;rotatable=0;points=[[0,0.5],[1,0.5]];portConstraint=eastwest;whiteSpace=wrap;html=1;" parent="Uhl-44Zc7lVo9UiM3blj-41" vertex="1">
          <mxGeometry y="26" width="200" height="26" as="geometry" />
        </mxCell>
        <mxCell id="Uhl-44Zc7lVo9UiM3blj-43" value="" style="line;strokeWidth=1;fillColor=none;align=left;verticalAlign=middle;spacingTop=-1;spacingLeft=3;spacingRight=3;rotatable=0;labelPosition=right;points=[];portConstraint=eastwest;strokeColor=inherit;" parent="Uhl-44Zc7lVo9UiM3blj-41" vertex="1">
          <mxGeometry y="52" width="200" height="8" as="geometry" />
        </mxCell>
        <mxCell id="Uhl-44Zc7lVo9UiM3blj-44" value="+ DrawImage(): void" style="text;strokeColor=none;fillColor=none;align=left;verticalAlign=top;spacingLeft=4;spacingRight=4;overflow=hidden;rotatable=0;points=[[0,0.5],[1,0.5]];portConstraint=eastwest;whiteSpace=wrap;html=1;" parent="Uhl-44Zc7lVo9UiM3blj-41" vertex="1">
          <mxGeometry y="60" width="200" height="26" as="geometry" />
        </mxCell>
        <mxCell id="Uhl-44Zc7lVo9UiM3blj-45" value="" style="endArrow=open;endFill=1;endSize=12;html=1;rounded=0;exitX=0.257;exitY=1.004;exitDx=0;exitDy=0;entryX=0.444;entryY=-0.001;entryDx=0;entryDy=0;entryPerimeter=0;exitPerimeter=0;" parent="1" source="Uhl-44Zc7lVo9UiM3blj-4" target="Uhl-44Zc7lVo9UiM3blj-9" edge="1">
          <mxGeometry width="160" relative="1" as="geometry">
            <mxPoint x="330" y="330" as="sourcePoint" />
            <mxPoint x="490" y="330" as="targetPoint" />
          </mxGeometry>
        </mxCell>
        <mxCell id="Uhl-44Zc7lVo9UiM3blj-51" value="elementView: List&amp;lt;ElementView&amp;gt;" style="edgeLabel;html=1;align=center;verticalAlign=middle;resizable=0;points=[];" parent="Uhl-44Zc7lVo9UiM3blj-45" vertex="1" connectable="0">
          <mxGeometry x="-0.1918" y="-1" relative="1" as="geometry">
            <mxPoint as="offset" />
          </mxGeometry>
        </mxCell>
        <mxCell id="Uhl-44Zc7lVo9UiM3blj-52" value="" style="endArrow=open;endFill=1;endSize=12;html=1;rounded=0;exitX=1.001;exitY=0.764;exitDx=0;exitDy=0;exitPerimeter=0;entryX=0.001;entryY=0.391;entryDx=0;entryDy=0;entryPerimeter=0;" parent="1" source="Uhl-44Zc7lVo9UiM3blj-6" target="Uhl-44Zc7lVo9UiM3blj-4" edge="1">
          <mxGeometry width="160" relative="1" as="geometry">
            <mxPoint x="250" y="300" as="sourcePoint" />
            <mxPoint x="410" y="160" as="targetPoint" />
          </mxGeometry>
        </mxCell>
        <mxCell id="Uhl-44Zc7lVo9UiM3blj-53" value="" style="endArrow=block;endSize=16;endFill=0;html=1;rounded=0;exitX=0.5;exitY=0;exitDx=0;exitDy=0;" parent="1" source="Uhl-44Zc7lVo9UiM3blj-13" target="ok5d3T1OpNBW3ZeCuiux-1" edge="1">
          <mxGeometry width="160" relative="1" as="geometry">
            <mxPoint x="320" y="410" as="sourcePoint" />
            <mxPoint x="480" y="410" as="targetPoint" />
          </mxGeometry>
        </mxCell>
        <mxCell id="Uhl-44Zc7lVo9UiM3blj-54" value="" style="endArrow=block;endSize=16;endFill=0;html=1;rounded=0;exitX=0.353;exitY=0.002;exitDx=0;exitDy=0;exitPerimeter=0;entryX=0.169;entryY=1;entryDx=0;entryDy=0;entryPerimeter=0;" parent="1" source="Uhl-44Zc7lVo9UiM3blj-17" target="Uhl-44Zc7lVo9UiM3blj-12" edge="1">
          <mxGeometry width="160" relative="1" as="geometry">
            <mxPoint x="540" y="550" as="sourcePoint" />
            <mxPoint x="700" y="550" as="targetPoint" />
          </mxGeometry>
        </mxCell>
        <mxCell id="Uhl-44Zc7lVo9UiM3blj-55" value="" style="endArrow=block;endSize=16;endFill=0;html=1;rounded=0;exitX=0.432;exitY=-0.001;exitDx=0;exitDy=0;exitPerimeter=0;entryX=0.436;entryY=1.011;entryDx=0;entryDy=0;entryPerimeter=0;" parent="1" source="Uhl-44Zc7lVo9UiM3blj-21" target="Uhl-44Zc7lVo9UiM3blj-20" edge="1">
          <mxGeometry width="160" relative="1" as="geometry">
            <mxPoint x="440" y="680" as="sourcePoint" />
            <mxPoint x="600" y="680" as="targetPoint" />
          </mxGeometry>
        </mxCell>
        <mxCell id="Uhl-44Zc7lVo9UiM3blj-56" value="" style="endArrow=block;endSize=16;endFill=0;html=1;rounded=0;exitX=0.341;exitY=-0.004;exitDx=0;exitDy=0;exitPerimeter=0;" parent="1" source="Uhl-44Zc7lVo9UiM3blj-25" edge="1">
          <mxGeometry width="160" relative="1" as="geometry">
            <mxPoint x="410" y="530" as="sourcePoint" />
            <mxPoint x="720" y="460" as="targetPoint" />
          </mxGeometry>
        </mxCell>
        <mxCell id="Uhl-44Zc7lVo9UiM3blj-57" value="" style="endArrow=block;endSize=16;endFill=0;html=1;rounded=0;exitX=0;exitY=-0.003;exitDx=0;exitDy=0;exitPerimeter=0;" parent="1" source="Uhl-44Zc7lVo9UiM3blj-30" target="ok5d3T1OpNBW3ZeCuiux-1" edge="1">
          <mxGeometry width="160" relative="1" as="geometry">
            <mxPoint x="720" y="390" as="sourcePoint" />
            <mxPoint x="830" y="410" as="targetPoint" />
          </mxGeometry>
        </mxCell>
        <mxCell id="Uhl-44Zc7lVo9UiM3blj-58" value="" style="endArrow=block;endSize=16;endFill=0;html=1;rounded=0;exitX=0;exitY=0.091;exitDx=0;exitDy=0;exitPerimeter=0;" parent="1" source="Uhl-44Zc7lVo9UiM3blj-38" target="ok5d3T1OpNBW3ZeCuiux-1" edge="1">
          <mxGeometry x="0.0005" width="160" relative="1" as="geometry">
            <mxPoint x="520" y="460" as="sourcePoint" />
            <mxPoint x="680" y="460" as="targetPoint" />
            <mxPoint as="offset" />
          </mxGeometry>
        </mxCell>
        <mxCell id="Uhl-44Zc7lVo9UiM3blj-59" value="" style="endArrow=block;endSize=16;endFill=0;html=1;rounded=0;exitX=0;exitY=0.5;exitDx=0;exitDy=0;" parent="1" source="Uhl-44Zc7lVo9UiM3blj-42" target="ok5d3T1OpNBW3ZeCuiux-1" edge="1">
          <mxGeometry width="160" relative="1" as="geometry">
            <mxPoint x="520" y="460" as="sourcePoint" />
            <mxPoint x="680" y="460" as="targetPoint" />
          </mxGeometry>
        </mxCell>
        <mxCell id="Uhl-44Zc7lVo9UiM3blj-60" value="" style="endArrow=block;endSize=16;endFill=0;html=1;rounded=0;" parent="1" source="Uhl-44Zc7lVo9UiM3blj-33" target="ok5d3T1OpNBW3ZeCuiux-1" edge="1">
          <mxGeometry width="160" relative="1" as="geometry">
            <mxPoint x="420" y="290" as="sourcePoint" />
            <mxPoint x="580" y="290" as="targetPoint" />
          </mxGeometry>
        </mxCell>
        <mxCell id="ok5d3T1OpNBW3ZeCuiux-1" value="ItemView" style="swimlane;fontStyle=1;align=center;verticalAlign=top;childLayout=stackLayout;horizontal=1;startSize=26;horizontalStack=0;resizeParent=1;resizeParentMax=0;resizeLast=0;collapsible=1;marginBottom=0;whiteSpace=wrap;html=1;" vertex="1" parent="1">
          <mxGeometry x="820" y="310" width="160" height="86" as="geometry" />
        </mxCell>
        <mxCell id="ok5d3T1OpNBW3ZeCuiux-2" value="- Item item" style="text;strokeColor=none;fillColor=none;align=left;verticalAlign=top;spacingLeft=4;spacingRight=4;overflow=hidden;rotatable=0;points=[[0,0.5],[1,0.5]];portConstraint=eastwest;whiteSpace=wrap;html=1;" vertex="1" parent="ok5d3T1OpNBW3ZeCuiux-1">
          <mxGeometry y="26" width="160" height="26" as="geometry" />
        </mxCell>
        <mxCell id="ok5d3T1OpNBW3ZeCuiux-3" value="" style="line;strokeWidth=1;fillColor=none;align=left;verticalAlign=middle;spacingTop=-1;spacingLeft=3;spacingRight=3;rotatable=0;labelPosition=right;points=[];portConstraint=eastwest;strokeColor=inherit;" vertex="1" parent="ok5d3T1OpNBW3ZeCuiux-1">
          <mxGeometry y="52" width="160" height="8" as="geometry" />
        </mxCell>
        <mxCell id="ok5d3T1OpNBW3ZeCuiux-4" value="+ method(type): type" style="text;strokeColor=none;fillColor=none;align=left;verticalAlign=top;spacingLeft=4;spacingRight=4;overflow=hidden;rotatable=0;points=[[0,0.5],[1,0.5]];portConstraint=eastwest;whiteSpace=wrap;html=1;" vertex="1" parent="ok5d3T1OpNBW3ZeCuiux-1">
          <mxGeometry y="60" width="160" height="26" as="geometry" />
        </mxCell>
        <mxCell id="ok5d3T1OpNBW3ZeCuiux-5" value="" style="endArrow=block;endSize=16;endFill=0;html=1;rounded=0;" edge="1" parent="1" source="ok5d3T1OpNBW3ZeCuiux-1" target="Uhl-44Zc7lVo9UiM3blj-9">
          <mxGeometry width="160" relative="1" as="geometry">
            <mxPoint x="800" y="180" as="sourcePoint" />
            <mxPoint x="960" y="180" as="targetPoint" />
          </mxGeometry>
        </mxCell>
      </root>
    </mxGraphModel>
  </diagram>
</mxfile>
